<?xml version="1.0" standalone="no"?>
<!DOCTYPE svg PUBLIC "-//W3C//DTD SVG 20010904//EN"
 "http://www.w3.org/TR/2001/REC-SVG-20010904/DTD/svg10.dtd">
<svg version="1.0" xmlns="http://www.w3.org/2000/svg"
 width="1320.000000pt" height="600.000000pt" viewBox="0 0 1320.000000 600.000000"
 preserveAspectRatio="xMidYMid meet">

<g transform="translate(0.000000,600.000000) scale(0.100000,-0.100000)"
fill="#000000" stroke="none">
<path d="M810 4140 l0 -780 195 0 195 0 0 -165 c0 -140 -2 -165 -15 -165 -10
0 -15 -10 -15 -30 0 -20 -5 -30 -15 -30 -10 0 -15 -10 -15 -30 0 -20 -5 -30
-15 -30 -10 0 -15 -10 -15 -30 0 -20 -5 -30 -15 -30 -11 0 -15 -12 -15 -45 0
-33 -4 -45 -15 -45 -10 0 -15 -10 -15 -30 0 -20 -5 -30 -15 -30 -10 0 -15 -10
-15 -30 0 -20 -5 -30 -15 -30 -10 0 -15 -10 -15 -30 0 -20 -5 -30 -15 -30 -10
0 -15 -10 -15 -30 0 -20 -5 -30 -15 -30 -11 0 -15 -12 -15 -45 0 -33 -4 -45
-15 -45 -10 0 -15 -10 -15 -30 0 -20 -5 -30 -15 -30 -10 0 -15 -10 -15 -30 0
-20 5 -30 15 -30 8 0 15 -7 15 -15 0 -8 -7 -15 -15 -15 -8 0 -15 7 -15 15 0 8
-7 15 -15 15 -10 0 -15 -10 -15 -30 0 -20 -5 -30 -15 -30 -13 0 -15 -47 -15
-360 0 -313 2 -360 15 -360 8 0 15 -7 15 -15 0 -8 -7 -15 -15 -15 -13 0 -15
-32 -15 -225 l0 -225 1080 0 1080 0 0 -135 0 -135 2895 0 c2567 0 2895 2 2895
15 0 8 7 15 15 15 8 0 15 -7 15 -15 0 -13 93 -15 780 -15 l780 0 0 150 0 150
990 0 990 0 0 360 0 360 45 0 45 0 0 90 c0 73 3 90 15 90 11 0 15 12 15 45 0
33 -4 45 -15 45 -13 0 -15 23 -15 150 0 127 -2 150 -15 150 -13 0 -15 23 -15
150 0 127 -2 150 -15 150 -13 0 -15 23 -15 150 0 127 -2 150 -15 150 -13 0
-15 23 -15 150 0 127 -2 150 -15 150 -13 0 -15 23 -15 150 0 127 -2 150 -15
150 -13 0 -15 23 -15 150 0 127 -2 150 -15 150 -13 0 -15 23 -15 150 0 127 -2
150 -15 150 -13 0 -15 23 -15 150 0 127 -2 150 -15 150 -13 0 -15 22 -15 135
0 113 -2 135 -15 135 -12 0 -15 17 -15 90 l0 90 -390 0 c-340 0 -390 -2 -390
-15 0 -8 -7 -15 -15 -15 -8 0 -15 7 -15 15 0 13 -522 15 -4635 15 -4113 0
-4635 -2 -4635 -15 0 -8 -7 -15 -15 -15 -8 0 -15 7 -15 15 0 13 -75 15 -615
15 l-615 0 0 -780z m9720 735 c0 -8 -7 -15 -15 -15 -8 0 -15 7 -15 15 0 8 7
15 15 15 8 0 15 -7 15 -15z m-6630 -30 c0 -8 -7 -15 -15 -15 -8 0 -15 7 -15
15 0 8 7 15 15 15 8 0 15 -7 15 -15z m3720 0 c0 -8 -7 -15 -15 -15 -8 0 -15 7
-15 15 0 8 7 15 15 15 8 0 15 -7 15 -15z m1650 0 c0 -8 -7 -15 -15 -15 -8 0
-15 7 -15 15 0 8 7 15 15 15 8 0 15 -7 15 -15z m1920 0 c0 -8 -7 -15 -15 -15
-8 0 -15 7 -15 15 0 8 7 15 15 15 8 0 15 -7 15 -15z m-300 -60 c0 -8 -7 -15
-15 -15 -8 0 -15 7 -15 15 0 8 7 15 15 15 8 0 15 -7 15 -15z m900 0 c0 -8 -7
-15 -15 -15 -8 0 -15 7 -15 15 0 8 7 15 15 15 8 0 15 -7 15 -15z m-7860 -30
c0 -8 -7 -15 -15 -15 -8 0 -15 7 -15 15 0 8 7 15 15 15 8 0 15 -7 15 -15z
m1080 0 c0 -8 -7 -15 -15 -15 -8 0 -15 7 -15 15 0 8 7 15 15 15 8 0 15 -7 15
-15z m-3570 -30 c0 -8 -7 -15 -15 -15 -8 0 -15 7 -15 15 0 8 7 15 15 15 8 0
15 -7 15 -15z m9990 0 c0 -8 -7 -15 -15 -15 -8 0 -15 7 -15 15 0 8 7 15 15 15
8 0 15 -7 15 -15z m-1470 -30 c0 -8 -7 -15 -15 -15 -8 0 -15 7 -15 15 0 8 7
15 15 15 8 0 15 -7 15 -15z m-7980 -60 c0 -8 -7 -15 -15 -15 -8 0 -15 7 -15
15 0 8 7 15 15 15 8 0 15 -7 15 -15z m7680 0 c0 -8 -7 -15 -15 -15 -8 0 -15 7
-15 15 0 8 7 15 15 15 8 0 15 -7 15 -15z m1770 -30 c0 -13 27 -15 180 -15
l180 0 0 -75 c0 -60 3 -75 15 -75 13 0 15 -23 15 -150 0 -127 2 -150 15 -150
13 0 15 -23 15 -150 0 -127 2 -150 15 -150 13 0 15 -22 15 -135 0 -113 2 -135
15 -135 8 0 15 -7 15 -15 0 -8 7 -15 15 -15 8 0 15 -7 15 -15 0 -8 -7 -15 -15
-15 -12 0 -15 -20 -15 -120 0 -100 3 -120 15 -120 13 0 15 -23 15 -150 l0
-150 30 0 c20 0 30 -5 30 -15 0 -8 -7 -15 -15 -15 -12 0 -15 -20 -15 -120 0
-100 3 -120 15 -120 13 0 15 -23 15 -150 0 -127 2 -150 15 -150 13 0 15 -23
15 -150 0 -127 2 -150 15 -150 13 0 15 -23 15 -150 l0 -150 -360 0 -360 0 0
360 0 360 -180 0 -180 0 0 -135 c0 -113 2 -135 15 -135 8 0 15 -7 15 -15 0 -8
-7 -15 -15 -15 -13 0 -15 -30 -15 -210 l0 -210 -315 0 -315 0 0 1395 0 1395
525 0 c460 0 525 2 525 15 0 8 7 15 15 15 8 0 15 -7 15 -15z m-8460 -270 l0
-255 -60 0 c-47 0 -60 -3 -60 -15 0 -8 -7 -15 -15 -15 -10 0 -15 -10 -15 -30
0 -20 -5 -30 -15 -30 -10 0 -15 -10 -15 -30 0 -20 -5 -30 -15 -30 -8 0 -15 -7
-15 -15 0 -8 -7 -15 -15 -15 -10 0 -15 -10 -15 -30 0 -20 -5 -30 -15 -30 -8 0
-15 -7 -15 -15 0 -8 -7 -15 -15 -15 -10 0 -15 -10 -15 -30 0 -20 -5 -30 -15
-30 -10 0 -15 -10 -15 -30 0 -20 -5 -30 -15 -30 -8 0 -15 -7 -15 -15 0 -8 -7
-15 -15 -15 -10 0 -15 -10 -15 -30 0 -20 -5 -30 -15 -30 -10 0 -15 -10 -15
-30 0 -20 -5 -30 -15 -30 -8 0 -15 -7 -15 -15 0 -8 -7 -15 -15 -15 -10 0 -15
-10 -15 -30 0 -20 -5 -30 -15 -30 -10 0 -15 -10 -15 -30 0 -20 -5 -30 -15 -30
-8 0 -15 -7 -15 -15 0 -8 -7 -15 -15 -15 -10 0 -15 -10 -15 -30 0 -20 -5 -30
-15 -30 -8 0 -15 -7 -15 -15 0 -8 -7 -15 -15 -15 -10 0 -15 -10 -15 -30 0 -20
-5 -30 -15 -30 -10 0 -15 -10 -15 -30 0 -20 -5 -30 -15 -30 -8 0 -15 -7 -15
-15 0 -8 -7 -15 -15 -15 -10 0 -15 -10 -15 -30 0 -20 -5 -30 -15 -30 -8 0 -15
-7 -15 -15 0 -8 -7 -15 -15 -15 -10 0 -15 -10 -15 -30 0 -20 -5 -30 -15 -30
-8 0 -15 -7 -15 -15 0 -8 -7 -15 -15 -15 -10 0 -15 -10 -15 -30 0 -20 -5 -30
-15 -30 -8 0 -15 -7 -15 -15 0 -8 -7 -15 -15 -15 -10 0 -15 -10 -15 -30 0 -20
-5 -30 -15 -30 -8 0 -15 -7 -15 -15 0 -8 -7 -15 -15 -15 -10 0 -15 -10 -15
-30 0 -20 -5 -30 -15 -30 -8 0 -15 -7 -15 -15 0 -8 -7 -15 -15 -15 -10 0 -15
-10 -15 -30 0 -20 -5 -30 -15 -30 -10 0 -15 -10 -15 -30 0 -20 -5 -30 -15 -30
-8 0 -15 -7 -15 -15 0 -8 -7 -15 -15 -15 -10 0 -15 -10 -15 -30 0 -20 -5 -30
-15 -30 -8 0 -15 -7 -15 -15 0 -8 -7 -15 -15 -15 -10 0 -15 -10 -15 -30 0 -20
-5 -30 -15 -30 -8 0 -15 -7 -15 -15 0 -8 -7 -15 -15 -15 -10 0 -15 -10 -15
-30 l0 -30 615 0 615 0 0 -255 0 -255 -900 0 -900 0 0 330 c0 287 2 330 15
330 8 0 15 7 15 15 0 8 7 15 15 15 10 0 15 10 15 30 0 20 5 30 15 30 10 0 15
10 15 30 0 20 5 30 15 30 10 0 15 10 15 30 0 20 5 30 15 30 10 0 15 10 15 30
0 20 5 30 15 30 10 0 15 10 15 30 0 20 5 30 15 30 10 0 15 10 15 30 0 20 5 30
15 30 10 0 15 10 15 30 0 20 5 30 15 30 10 0 15 10 15 30 0 20 5 30 15 30 10
0 15 10 15 30 0 20 5 30 15 30 10 0 15 10 15 30 0 20 5 30 15 30 8 0 15 7 15
15 0 8 7 15 15 15 11 0 15 12 15 45 0 33 4 45 15 45 10 0 15 10 15 30 0 20 5
30 15 30 10 0 15 10 15 30 0 20 5 30 15 30 10 0 15 10 15 30 0 20 5 30 15 30
10 0 15 10 15 30 0 20 5 30 15 30 10 0 15 10 15 30 0 20 5 30 15 30 10 0 15
10 15 30 0 20 5 30 15 30 10 0 15 10 15 30 0 20 5 30 15 30 10 0 15 10 15 30
0 20 5 30 15 30 10 0 15 10 15 30 0 20 5 30 15 30 10 0 15 10 15 30 0 20 5 30
15 30 10 0 15 10 15 30 0 20 5 30 15 30 10 0 15 10 15 30 0 20 5 30 15 30 10
0 15 10 15 30 0 20 5 30 15 30 10 0 15 10 15 30 0 20 5 30 15 30 10 0 15 10
15 30 l0 30 -420 0 -420 0 0 255 0 255 900 0 900 0 0 -255z m630 -1155 l0
-1410 -270 0 -270 0 0 1410 0 1410 270 0 270 0 0 -1410z m1710 1155 l0 -255
-195 0 -195 0 0 -1140 0 -1140 -315 0 -315 0 0 270 c0 233 -2 270 -15 270 -8
0 -15 7 -15 15 0 8 7 15 15 15 13 0 15 102 15 855 l0 855 -30 0 c-20 0 -30 -5
-30 -15 0 -8 -7 -15 -15 -15 -8 0 -15 7 -15 15 0 13 -35 15 -255 15 l-255 0 0
255 0 255 810 0 810 0 0 -255z m810 -780 l0 -1035 255 0 c220 0 255 2 255 15
0 8 7 15 15 15 8 0 15 -7 15 -15 0 -12 17 -15 90 -15 l90 0 0 -360 0 -360
-720 0 -720 0 0 150 c0 127 -2 150 -15 150 -8 0 -15 7 -15 15 0 8 7 15 15 15
13 0 15 143 15 1230 l0 1230 360 0 360 0 0 -1035z m510 1020 c0 -8 -7 -15 -15
-15 -8 0 -15 7 -15 15 0 8 7 15 15 15 8 0 15 -7 15 -15z m2100 -1380 l0 -1395
-360 0 -360 0 0 360 0 360 -180 0 -180 0 0 -360 0 -360 -360 0 -360 0 0 450
c0 393 -2 450 -15 450 -8 0 -15 7 -15 15 0 8 7 15 15 15 13 0 15 110 15 930
l0 930 900 0 900 0 0 -1395z m810 435 c0 -847 2 -960 15 -960 8 0 15 -7 15
-15 0 -8 -7 -15 -15 -15 -12 0 -15 -13 -15 -60 l0 -60 360 0 360 0 0 -360 0
-360 -720 0 -720 0 0 1380 c0 1220 -2 1380 -15 1380 -8 0 -15 7 -15 15 0 13
48 15 375 15 l375 0 0 -960z m-3330 885 c0 -8 -7 -15 -15 -15 -8 0 -15 7 -15
15 0 8 7 15 15 15 8 0 15 -7 15 -15z m-5220 -180 c0 -8 -7 -15 -15 -15 -8 0
-15 7 -15 15 0 8 7 15 15 15 8 0 15 -7 15 -15z m5730 -120 c0 -8 -7 -15 -15
-15 -8 0 -15 7 -15 15 0 8 7 15 15 15 8 0 15 -7 15 -15z m90 -90 c0 -8 -7 -15
-15 -15 -8 0 -15 7 -15 15 0 8 7 15 15 15 8 0 15 -7 15 -15z m5310 -60 c0 -8
-7 -15 -15 -15 -8 0 -15 7 -15 15 0 8 7 15 15 15 8 0 15 -7 15 -15z m-11100
-30 c0 -8 -7 -15 -15 -15 -8 0 -15 7 -15 15 0 8 7 15 15 15 8 0 15 -7 15 -15z
m8880 -60 c0 -8 -7 -15 -15 -15 -8 0 -15 7 -15 15 0 8 7 15 15 15 8 0 15 -7
15 -15z m-3390 -30 c0 -8 -7 -15 -15 -15 -8 0 -15 7 -15 15 0 8 7 15 15 15 8
0 15 -7 15 -15z m330 0 c0 -8 -7 -15 -15 -15 -8 0 -15 7 -15 15 0 8 7 15 15
15 8 0 15 -7 15 -15z m2820 -120 c0 -8 -7 -15 -15 -15 -8 0 -15 7 -15 15 0 8
7 15 15 15 8 0 15 -7 15 -15z m-4530 -30 c0 -8 -7 -15 -15 -15 -8 0 -15 7 -15
15 0 8 7 15 15 15 8 0 15 -7 15 -15z m1350 -60 c0 -8 -7 -15 -15 -15 -8 0 -15
7 -15 15 0 8 7 15 15 15 8 0 15 -7 15 -15z m3600 -30 c0 -8 -7 -15 -15 -15 -8
0 -15 7 -15 15 0 8 7 15 15 15 8 0 15 -7 15 -15z m240 -180 c0 -8 -7 -15 -15
-15 -8 0 -15 7 -15 15 0 8 7 15 15 15 8 0 15 -7 15 -15z m-8760 -30 c0 -8 -7
-15 -15 -15 -8 0 -15 7 -15 15 0 8 7 15 15 15 8 0 15 -7 15 -15z m5010 0 c0
-8 -7 -15 -15 -15 -8 0 -15 7 -15 15 0 8 7 15 15 15 8 0 15 -7 15 -15z m3090
0 c0 -8 -7 -15 -15 -15 -8 0 -15 7 -15 15 0 8 7 15 15 15 8 0 15 -7 15 -15z
m-5550 -60 c0 -8 -7 -15 -15 -15 -8 0 -15 7 -15 15 0 8 7 15 15 15 8 0 15 -7
15 -15z m2490 0 c0 -8 -7 -15 -15 -15 -8 0 -15 7 -15 15 0 8 7 15 15 15 8 0
15 -7 15 -15z m3180 0 c0 -8 -7 -15 -15 -15 -8 0 -15 7 -15 15 0 8 7 15 15 15
8 0 15 -7 15 -15z m-6060 -30 c0 -8 -7 -15 -15 -15 -8 0 -15 7 -15 15 0 8 7
15 15 15 8 0 15 -7 15 -15z m6120 0 c0 -8 -7 -15 -15 -15 -8 0 -15 7 -15 15 0
8 7 15 15 15 8 0 15 -7 15 -15z m-3480 -60 c0 -8 -7 -15 -15 -15 -8 0 -15 7
-15 15 0 8 7 15 15 15 8 0 15 -7 15 -15z m-2670 -30 c0 -8 -7 -15 -15 -15 -8
0 -15 7 -15 15 0 8 7 15 15 15 8 0 15 -7 15 -15z m1380 -60 c0 -8 -7 -15 -15
-15 -8 0 -15 7 -15 15 0 8 7 15 15 15 8 0 15 -7 15 -15z m1440 0 c0 -8 -7 -15
-15 -15 -8 0 -15 7 -15 15 0 8 7 15 15 15 8 0 15 -7 15 -15z m90 0 c0 -8 -7
-15 -15 -15 -8 0 -15 7 -15 15 0 8 7 15 15 15 8 0 15 -7 15 -15z m-4050 -120
c0 -8 -7 -15 -15 -15 -8 0 -15 7 -15 15 0 8 7 15 15 15 8 0 15 -7 15 -15z
m3840 -60 c0 -8 -7 -15 -15 -15 -8 0 -15 7 -15 15 0 8 7 15 15 15 8 0 15 -7
15 -15z m-3690 -30 c0 -8 -7 -15 -15 -15 -8 0 -15 7 -15 15 0 8 7 15 15 15 8
0 15 -7 15 -15z m3900 0 c0 -8 -7 -15 -15 -15 -8 0 -15 7 -15 15 0 8 7 15 15
15 8 0 15 -7 15 -15z m150 -30 c0 -8 -7 -15 -15 -15 -8 0 -15 7 -15 15 0 8 7
15 15 15 8 0 15 -7 15 -15z m3030 -30 c0 -8 -7 -15 -15 -15 -8 0 -15 7 -15 15
0 8 7 15 15 15 8 0 15 -7 15 -15z m-7530 -60 c0 -8 -7 -15 -15 -15 -8 0 -15 7
-15 15 0 8 7 15 15 15 8 0 15 -7 15 -15z m2910 -30 c0 -8 -7 -15 -15 -15 -8 0
-15 7 -15 15 0 8 7 15 15 15 8 0 15 -7 15 -15z m5010 0 c0 -8 -7 -15 -15 -15
-8 0 -15 7 -15 15 0 8 7 15 15 15 8 0 15 -7 15 -15z m-6090 -30 c0 -8 -7 -15
-15 -15 -8 0 -15 7 -15 15 0 8 7 15 15 15 8 0 15 -7 15 -15z m2460 -60 c0 -8
-7 -15 -15 -15 -8 0 -15 7 -15 15 0 8 7 15 15 15 8 0 15 -7 15 -15z m-2850
-30 c0 -8 -7 -15 -15 -15 -8 0 -15 7 -15 15 0 8 7 15 15 15 8 0 15 -7 15 -15z
m-960 -120 c0 -8 -7 -15 -15 -15 -8 0 -15 7 -15 15 0 8 7 15 15 15 8 0 15 -7
15 -15z m9450 0 c0 -8 -7 -15 -15 -15 -8 0 -15 7 -15 15 0 8 7 15 15 15 8 0
15 -7 15 -15z m-90 -30 c0 -8 -7 -15 -15 -15 -8 0 -15 7 -15 15 0 8 7 15 15
15 8 0 15 -7 15 -15z m150 0 c0 -8 -7 -15 -15 -15 -8 0 -15 7 -15 15 0 8 7 15
15 15 8 0 15 -7 15 -15z m-2310 -30 c0 -8 -7 -15 -15 -15 -8 0 -15 7 -15 15 0
8 7 15 15 15 8 0 15 -7 15 -15z m-7380 -30 c0 -8 -7 -15 -15 -15 -8 0 -15 7
-15 15 0 8 7 15 15 15 8 0 15 -7 15 -15z m180 -60 c0 -8 -7 -15 -15 -15 -8 0
-15 7 -15 15 0 8 7 15 15 15 8 0 15 -7 15 -15z m-1680 -30 c0 -8 -7 -15 -15
-15 -8 0 -15 7 -15 15 0 8 7 15 15 15 8 0 15 -7 15 -15z m6660 -120 c0 -8 -7
-15 -15 -15 -8 0 -15 7 -15 15 0 8 7 15 15 15 8 0 15 -7 15 -15z m210 0 c0 -8
-7 -15 -15 -15 -8 0 -15 7 -15 15 0 8 7 15 15 15 8 0 15 -7 15 -15z m60 -30
c0 -8 -7 -15 -15 -15 -8 0 -15 7 -15 15 0 8 7 15 15 15 8 0 15 -7 15 -15z
m-7110 -180 c0 -8 -7 -15 -15 -15 -8 0 -15 7 -15 15 0 8 7 15 15 15 8 0 15 -7
15 -15z m4230 0 c0 -10 -10 -15 -30 -15 -20 0 -30 5 -30 15 0 10 10 15 30 15
20 0 30 -5 30 -15z m-930 -60 c0 -8 -7 -15 -15 -15 -8 0 -15 7 -15 15 0 8 7
15 15 15 8 0 15 -7 15 -15z m8070 0 c0 -8 -7 -15 -15 -15 -8 0 -15 7 -15 15 0
8 7 15 15 15 8 0 15 -7 15 -15z m-8430 -150 c0 -8 -7 -15 -15 -15 -8 0 -15 7
-15 15 0 8 7 15 15 15 8 0 15 -7 15 -15z m-2550 -210 c0 -8 -7 -15 -15 -15 -8
0 -15 7 -15 15 0 8 7 15 15 15 8 0 15 -7 15 -15z m2040 -30 c0 -8 -7 -15 -15
-15 -8 0 -15 7 -15 15 0 8 7 15 15 15 8 0 15 -7 15 -15z m4800 0 c0 -8 -7 -15
-15 -15 -8 0 -15 7 -15 15 0 8 7 15 15 15 8 0 15 -7 15 -15z m1920 0 c0 -8 -7
-15 -15 -15 -8 0 -15 7 -15 15 0 8 7 15 15 15 8 0 15 -7 15 -15z m1380 0 c0
-8 -7 -15 -15 -15 -8 0 -15 7 -15 15 0 8 7 15 15 15 8 0 15 -7 15 -15z m900 0
c0 -8 -7 -15 -15 -15 -8 0 -15 7 -15 15 0 8 7 15 15 15 8 0 15 -7 15 -15z
m-9540 -30 c0 -8 -7 -15 -15 -15 -8 0 -15 7 -15 15 0 8 7 15 15 15 8 0 15 -7
15 -15z m3060 -30 c0 -8 -7 -15 -15 -15 -8 0 -15 7 -15 15 0 8 7 15 15 15 8 0
15 -7 15 -15z m450 0 c0 -8 -7 -15 -15 -15 -8 0 -15 7 -15 15 0 8 7 15 15 15
8 0 15 -7 15 -15z m-1920 -30 c0 -8 -7 -15 -15 -15 -8 0 -15 7 -15 15 0 8 7
15 15 15 8 0 15 -7 15 -15z m2790 0 c0 -8 -7 -15 -15 -15 -8 0 -15 7 -15 15 0
8 7 15 15 15 8 0 15 -7 15 -15z m3600 0 c0 -8 -7 -15 -15 -15 -8 0 -15 7 -15
15 0 8 7 15 15 15 8 0 15 -7 15 -15z m930 0 c0 -8 -7 -15 -15 -15 -8 0 -15 7
-15 15 0 8 7 15 15 15 8 0 15 -7 15 -15z m-9180 -60 c0 -8 -7 -15 -15 -15 -8
0 -15 7 -15 15 0 8 7 15 15 15 8 0 15 -7 15 -15z m8760 0 c0 -8 -7 -15 -15
-15 -8 0 -15 7 -15 15 0 8 7 15 15 15 8 0 15 -7 15 -15z m-7320 -120 c0 -8 -7
-15 -15 -15 -8 0 -15 7 -15 15 0 8 7 15 15 15 8 0 15 -7 15 -15z m7320 0 c0
-8 -7 -15 -15 -15 -8 0 -15 7 -15 15 0 8 7 15 15 15 8 0 15 -7 15 -15z m-8820
-30 c0 -8 -7 -15 -15 -15 -8 0 -15 7 -15 15 0 8 7 15 15 15 8 0 15 -7 15 -15z
m7860 0 c0 -8 -7 -15 -15 -15 -8 0 -15 7 -15 15 0 8 7 15 15 15 8 0 15 -7 15
-15z m-2490 -30 c0 -8 -7 -15 -15 -15 -8 0 -15 7 -15 15 0 8 7 15 15 15 8 0
15 -7 15 -15z m1200 0 c0 -8 -7 -15 -15 -15 -8 0 -15 7 -15 15 0 8 7 15 15 15
8 0 15 -7 15 -15z m1830 0 c0 -8 -7 -15 -15 -15 -8 0 -15 7 -15 15 0 8 7 15
15 15 8 0 15 -7 15 -15z m-5790 -30 c0 -8 -7 -15 -15 -15 -8 0 -15 7 -15 15 0
8 7 15 15 15 8 0 15 -7 15 -15z m4110 0 c0 -8 -7 -15 -15 -15 -8 0 -15 7 -15
15 0 8 7 15 15 15 8 0 15 -7 15 -15z m-5280 -30 c0 -8 -7 -15 -15 -15 -8 0
-15 7 -15 15 0 8 7 15 15 15 8 0 15 -7 15 -15z m2850 0 c0 -8 -7 -15 -15 -15
-8 0 -15 7 -15 15 0 8 7 15 15 15 8 0 15 -7 15 -15z m1830 -30 c0 -8 -7 -15
-15 -15 -8 0 -15 7 -15 15 0 8 7 15 15 15 8 0 15 -7 15 -15z m-4410 -60 c0 -8
-7 -15 -15 -15 -8 0 -15 7 -15 15 0 8 7 15 15 15 8 0 15 -7 15 -15z m4230 -60
c0 -8 -7 -15 -15 -15 -8 0 -15 7 -15 15 0 8 7 15 15 15 8 0 15 -7 15 -15z
m2130 0 c0 -8 -7 -15 -15 -15 -8 0 -15 7 -15 15 0 8 7 15 15 15 8 0 15 -7 15
-15z m-6570 -90 c0 -8 -7 -15 -15 -15 -8 0 -15 7 -15 15 0 8 7 15 15 15 8 0
15 -7 15 -15z m6390 0 c0 -8 -7 -15 -15 -15 -8 0 -15 7 -15 15 0 8 7 15 15 15
8 0 15 -7 15 -15z m-4650 -60 c0 -8 -7 -15 -15 -15 -8 0 -15 7 -15 15 0 8 7
15 15 15 8 0 15 -7 15 -15z m-1470 -120 c0 -8 -7 -15 -15 -15 -8 0 -15 7 -15
15 0 8 7 15 15 15 8 0 15 -7 15 -15z m2940 0 c0 -8 -7 -15 -15 -15 -8 0 -15 7
-15 15 0 8 7 15 15 15 8 0 15 -7 15 -15z m3150 0 c0 -8 -7 -15 -15 -15 -8 0
-15 7 -15 15 0 8 7 15 15 15 8 0 15 -7 15 -15z m-6570 -30 c0 -8 -7 -15 -15
-15 -8 0 -15 7 -15 15 0 8 7 15 15 15 8 0 15 -7 15 -15z m4290 0 c0 -8 -7 -15
-15 -15 -8 0 -15 7 -15 15 0 8 7 15 15 15 8 0 15 -7 15 -15z m-450 -30 c0 -8
-7 -15 -15 -15 -8 0 -15 7 -15 15 0 8 7 15 15 15 8 0 15 -7 15 -15z"/>
<path d="M11070 3570 l0 -480 180 0 180 0 0 480 0 480 -180 0 -180 0 0 -480z
m150 -45 c0 -8 -7 -15 -15 -15 -8 0 -15 7 -15 15 0 8 7 15 15 15 8 0 15 -7 15
-15z"/>
<path d="M7650 3570 l0 -480 180 0 180 0 0 480 0 480 -180 0 -180 0 0 -480z
m210 285 c0 -8 -7 -15 -15 -15 -8 0 -15 7 -15 15 0 8 7 15 15 15 8 0 15 -7 15
-15z"/>
</g>
</svg>
